<svg width="24" height="26" viewBox="0 0 24 26" fill="none" xmlns="http://www.w3.org/2000/svg">
<path d="M4.55556 0.951904L1 5.72632V22.4368C1 23.0699 1.24974 23.6771 1.69427 24.1248C2.1388 24.5725 2.74171 24.824 3.37037 24.824H19.963C20.5917 24.824 21.1946 24.5725 21.6391 24.1248C22.0836 23.6771 22.3334 23.0699 22.3334 22.4368V5.72632L18.7778 0.951904H4.55556Z" stroke="#222222" stroke-width="1.5" stroke-linecap="round" stroke-linejoin="round"/>
<path d="M1 5.72656H22.3333" stroke="#222222" stroke-width="1.5" stroke-linecap="round" stroke-linejoin="round"/>
<path d="M16.4072 10.501C16.4072 11.7672 15.9078 12.9816 15.0187 13.877C14.1296 14.7724 12.9238 15.2754 11.6665 15.2754C10.4092 15.2754 9.20336 14.7724 8.31431 13.877C7.42525 12.9816 6.92578 11.7672 6.92578 10.501" stroke="#222222" stroke-width="1.5" stroke-linecap="round" stroke-linejoin="round"/>
</svg>
