<svg width="175" height="62" viewBox="0 0 175 62" fill="none" xmlns="http://www.w3.org/2000/svg">
<g clip-path="url(#clip0)">
<path d="M75.436 47.4791C74.1008 47.4791 72.7657 47.2244 71.4305 46.6512C70.0954 46.078 69.1417 45.7596 68.5695 45.7596C67.5523 45.7596 66.5986 46.4601 66.3443 46.9696H65.6449L65.9628 37.512H66.6622C66.5986 39.9321 67.4251 42.0975 69.1417 43.9445C70.8583 45.7914 72.9564 46.683 75.436 46.683C79.1871 46.683 81.476 44.7724 81.476 41.1422C81.476 37.8941 79.3779 36.7477 74.228 35.0282C69.3325 33.436 66.7575 31.3343 66.7575 27.4493C66.7575 22.418 70.1272 19.1381 74.2916 19.1381C76.0082 19.1381 77.7248 19.966 79.505 19.966C80.268 19.966 80.713 19.6476 80.8402 18.947H81.5395V26.6214H80.8402C80.8402 24.6471 80.1408 23.0549 78.8057 21.8448C77.4705 20.5711 75.9446 19.9342 74.2916 19.9342C71.1762 19.9342 69.3325 21.5901 69.3325 24.3286C69.3325 27.3856 71.367 28.7868 76.485 30.3153C81.8256 31.9075 84.4959 34.5824 84.4959 38.4673C84.4642 43.8489 81.2852 47.4791 75.436 47.4791Z" fill="white"/>
<path d="M104.078 41.8745C103.125 45.6321 101.027 47.4791 97.784 47.4791C94.2236 47.4791 92.4434 45.3774 92.4434 41.2377V20.4755H87.675V19.7112H92.4434V12.5782C94.7958 12.2598 96.3853 11.0497 97.0846 8.948H97.7204V19.7431H103.442V20.5073H97.7204V44.1673C97.7204 45.3774 98.3562 46.0142 99.5642 46.0142C101.344 46.0142 102.87 44.3584 103.57 41.5561L104.078 41.8745Z" fill="white"/>
<path d="M134.183 19.7114V20.4757H131.83C130.368 20.4757 129.923 20.8578 129.096 23.1506L116.794 56.8095C115.459 60.5671 113.806 61.9682 111.199 61.9682C108.656 61.9682 106.685 60.2487 106.685 57.8922C106.685 55.8542 107.957 54.3257 109.673 54.3257C111.263 54.3257 112.28 55.3447 112.28 56.6185C112.28 57.6375 111.008 58.9749 111.008 59.8347C111.008 60.5353 111.517 60.8537 112.598 60.8537C113.933 60.8537 115.077 59.5799 116.031 56.9687L119.401 47.6067L108.147 23.0232C108.115 22.9277 108.052 22.8321 107.988 22.7047C107.035 20.5712 105.763 20.4757 104.746 20.4757H103.411V19.7114H116.412V20.4757H112.661L121.976 40.7602L128.397 23.1506C129.351 20.6667 128.588 20.4757 127.825 20.4757H125.345V19.7114H134.183Z" fill="white"/>
<path d="M154.496 43.4032C152.016 40.6646 150.808 37.2892 150.808 33.3724C150.808 29.4238 152.016 26.0483 154.496 23.2779C156.975 20.5393 160.091 19.1382 163.746 19.1382C167.497 19.1382 170.708 21.0488 172.425 23.66C174.141 26.2712 175.032 29.0735 175.032 31.5573V31.7484H156.403C156.339 32.0668 156.339 32.64 156.339 33.3405C156.339 36.9708 156.53 39.6456 156.912 41.3652C157.357 43.0848 158.056 44.3585 159.073 45.2502C160.218 46.2055 161.744 46.715 163.715 46.715C167.974 46.715 171.344 44.8043 173.855 40.9831L174.364 41.3652C171.757 45.3775 168.197 47.4155 163.715 47.4155C160.122 47.4792 156.975 46.1418 154.496 43.4032ZM169.659 31.0796C169.596 25.9846 168.896 22.7365 167.497 21.2399C166.544 20.2846 165.336 19.8387 163.746 19.8387C161.775 19.8387 160.186 20.2846 159.105 21.2399C157.452 22.7047 156.562 25.9528 156.435 31.0796H169.659Z" fill="white"/>
<path d="M22.0299 37.1618C24.1542 37.1618 25.8764 35.4367 25.8764 33.3087C25.8764 31.1807 24.1542 29.4556 22.0299 29.4556C19.9055 29.4556 18.1833 31.1807 18.1833 33.3087C18.1833 35.4367 19.9055 37.1618 22.0299 37.1618Z" fill="white"/>
<path d="M12.1117 20.5075H13.129V19.7114H0V20.5075H1.01726C2.60672 20.5075 3.87829 21.7813 3.87829 23.3735V43.244C3.87829 44.8362 2.60672 46.11 1.01726 46.11H0V46.8742H13.129V46.11H12.1117C10.5223 46.11 9.25068 44.8362 9.25068 43.244V23.3735C9.25068 21.7813 10.5223 20.5075 12.1117 20.5075Z" fill="white"/>
<path d="M146.994 46.1418V46.906H133.865V46.1418H134.882C136.472 46.1418 137.743 44.868 137.743 43.2758V3.66204C137.743 2.06985 136.472 0.796097 134.882 0.796097H133.865V0H143.116V43.244C143.116 44.8362 144.387 46.1099 145.977 46.1099H146.994V46.1418Z" fill="white"/>
<path d="M60.813 46.1418C59.2236 46.1418 57.952 44.868 57.952 43.2758V32.5126V29.8059C57.952 23.1187 54.0737 19.1382 47.3979 19.1382C44.0283 19.1382 41.2308 20.9851 40.2136 24.1058V19.7114H30.9311V20.5075H31.9483C33.5378 20.5075 34.8094 21.7812 34.8094 23.3734V33.0858V43.244C34.8094 44.8362 33.5378 46.1099 31.9483 46.1099H30.9311V46.8742H44.0601V46.1099H43.0428C41.4533 46.1099 40.1818 44.8362 40.1818 43.244V32.4808V25.7617C41.3898 21.9086 43.7422 19.9343 47.3661 19.9343C50.6087 19.9343 52.516 23.1187 52.516 26.4304V43.3395C52.4842 44.8999 51.2762 46.1418 49.7186 46.1418H48.7013V46.906H61.8303V46.1418H60.813Z" fill="white"/>
</g>
<defs>
<clipPath id="clip0">
<rect width="175" height="62" fill="white"/>
</clipPath>
</defs>
</svg>
