<svg width="118" height="42" viewBox="0 0 118 42" fill="none" xmlns="http://www.w3.org/2000/svg">
<path d="M14.8614 25.0015C16.2877 25.0015 17.4439 23.8453 17.4439 22.4191C17.4439 20.9929 16.2877 19.8367 14.8614 19.8367C13.4352 19.8367 12.279 20.9929 12.279 22.4191C12.279 23.8453 13.4352 25.0015 14.8614 25.0015Z" fill="#E2A93A"/>
<path d="M8.16967 13.7953H8.86096V13.2656H0V13.7953H0.69129C1.75736 13.7953 2.62478 14.6628 2.62478 15.7288V29.1123C2.62478 30.1784 1.76398 31.0458 0.69129 31.0458H0V31.5676H8.86096V31.0458H8.16967C7.09566 31.0458 6.23618 30.1784 6.23618 29.1123V15.7288C6.23485 14.6628 7.1036 13.7953 8.16967 13.7953Z" fill="#E2A93A"/>
<path d="M50.8585 31.9569C49.958 31.9569 49.0562 31.786 48.1517 31.4007C47.2511 31.014 46.6075 30.7981 46.2208 30.7981C45.5322 30.7981 44.8886 31.2709 44.7177 31.6125H44.2449L44.4608 25.2558H44.9336C44.8885 26.8914 45.4487 28.3494 46.6062 29.5943C47.765 30.8405 49.1846 31.4417 50.8572 31.4417C53.3893 31.4417 54.9387 30.1545 54.9387 27.7045C54.9387 25.5167 53.5191 24.7394 50.0441 23.5819C46.7346 22.5066 45.0157 21.0909 45.0157 18.4714C45.0157 15.0798 47.2948 12.8868 50.0851 12.8868C51.2439 12.8868 52.4014 13.4469 53.6065 13.4469C54.1216 13.4469 54.4249 13.2311 54.507 12.7583H54.9798V17.9152H54.507C54.507 16.5829 54.0382 15.5076 53.1324 14.6931C52.2319 13.8336 51.2015 13.4059 50.0851 13.4059C47.9795 13.4059 46.7346 14.5223 46.7346 16.3657C46.7346 18.429 48.1093 19.3719 51.5472 20.4062C55.1506 21.4776 56.957 23.2839 56.957 25.9034C56.9583 29.5069 54.8116 31.9569 50.8585 31.9569Z" fill="#1F1E23"/>
<path d="M84.4892 13.2737V13.7888H86.1658C86.6809 13.7888 87.1948 13.9213 86.5551 15.5978L82.2167 27.4517L75.9448 13.7888H78.4821V13.2737H69.7165V13.2777H65.8773V6.01514H65.4456C64.9768 7.4348 63.9015 8.24925 62.311 8.46511V13.2777H59.0929V13.7928H62.311V27.7484C62.311 30.5427 63.5148 31.9584 65.9197 31.9584C68.1115 31.9584 69.5285 30.7122 70.1708 28.1801L69.8264 27.9643C69.3576 29.854 68.3234 30.9704 67.1235 30.9704C66.3051 30.9704 65.8773 30.5427 65.8773 29.7243V13.7928H69.743V13.7888H70.6144C71.3123 13.7888 72.1586 13.863 72.8061 15.2893C72.8432 15.3701 72.8803 15.4363 72.9094 15.4945L80.4977 32.0471L78.2252 38.3495C77.5856 40.1069 76.8135 40.9677 75.909 40.9677C75.1806 40.9677 74.835 40.7544 74.835 40.2843C74.835 39.7175 75.6958 38.821 75.6958 38.1297C75.6958 37.2768 75.0045 36.5855 73.9305 36.5855C72.7691 36.5855 71.9162 37.6145 71.9162 38.9905C71.9162 40.5783 73.2471 41.7411 74.9608 41.7411C76.7261 41.7411 77.8438 40.7995 78.7404 38.2634L87.0279 15.6005C87.5868 14.0484 87.8887 13.7915 88.874 13.7915H90.4618V13.2737H84.4892Z" fill="#1F1E23"/>
<path d="M104.17 29.2076C102.497 27.3602 101.679 25.0851 101.679 22.4642C101.679 19.8024 102.497 17.5272 104.17 15.6798C105.848 13.8324 107.952 12.8855 110.398 12.8855C112.93 12.8855 115.082 14.1767 116.24 15.9367C117.399 17.6967 118 19.5865 118 21.2591V21.3915H105.461C105.416 21.6034 105.416 21.9888 105.416 22.4629C105.416 24.9129 105.545 26.714 105.803 27.8727C106.106 29.0355 106.579 29.895 107.265 30.4922C108.037 31.1398 109.071 31.4802 110.4 31.4802C113.277 31.4802 115.552 30.1929 117.229 27.6145L117.573 27.8714C115.813 30.5783 113.404 31.9529 110.398 31.9529C107.952 31.9569 105.847 31.0551 104.17 29.2076ZM114.391 20.9201C114.35 17.4822 113.876 15.2944 112.929 14.3065C112.285 13.6629 111.472 13.3596 110.397 13.3596C109.069 13.3596 107.993 13.6629 107.262 14.3065C106.146 15.2944 105.543 17.4822 105.46 20.9201H114.391Z" fill="#1F1E23"/>
<path d="M99.1125 31.0458V31.5676H90.2516V31.0458H90.9429C92.0169 31.0458 92.8764 30.1784 92.8764 29.1123V2.46322C92.8764 1.39715 92.0089 0.529724 90.9429 0.529724H90.2516V0H96.4878V29.1123C96.4878 30.1784 97.3486 31.0458 98.4212 31.0458H99.1125Z" fill="#1F1E23"/>
<path d="M41.0034 31.046C39.9294 31.046 39.0699 30.1785 39.0699 29.1125V21.8765V20.0595C39.0699 15.5515 36.4517 12.8831 31.9438 12.8831C29.6713 12.8831 27.7894 14.1253 27.0981 16.2216V13.2658H20.862V13.7955H21.5533C22.6193 13.7955 23.4868 14.6629 23.4868 15.729V22.2658V29.1125C23.4868 30.1785 22.6193 31.046 21.5533 31.046H20.862V31.5678H29.7229V31.046H29.0316C27.9576 31.046 27.0981 30.1785 27.0981 29.1125V21.8765V17.3314C27.9139 14.7278 29.5031 13.4048 31.9438 13.4048C34.1276 13.4048 35.4148 15.5515 35.4148 17.787V29.1655C35.387 30.2064 34.5805 31.046 33.525 31.046H32.8337V31.5678H32.8417H41.6947V31.0526V31.0447H41.0034V31.046Z" fill="#E2A93A"/>
</svg>
